<svg xmlns="http://www.w3.org/2000/svg" width="36" height="36" viewBox="0 0 36 36"><defs><style>.a{fill:#241414;}</style></defs><g transform="translate(0)"><path class="a" d="M25.874,36a10.03,10.03,0,0,1-3.441-.615A36.693,36.693,0,0,1,9.108,26.892,36.691,36.691,0,0,1,.615,13.568,9.957,9.957,0,0,1,.107,8.674,10.211,10.211,0,0,1,5.355,1.2a10.024,10.024,0,0,1,4.8-1.2,1.125,1.125,0,0,1,1.1.889l1.766,8.24a1.125,1.125,0,0,1-.3,1.031L9.7,13.178A29.612,29.612,0,0,0,22.823,26.3l3.017-3.017a1.126,1.126,0,0,1,1.031-.3l8.24,1.766a1.125,1.125,0,0,1,.889,1.1,10.024,10.024,0,0,1-1.2,4.8,10.211,10.211,0,0,1-7.475,5.248A10.007,10.007,0,0,1,25.874,36ZM9.256,2.3A7.883,7.883,0,0,0,2.73,12.8,34.122,34.122,0,0,0,23.2,33.271a7.883,7.883,0,0,0,10.5-6.526L27,25.308l-3.151,3.151a1.125,1.125,0,0,1-1.274.223A31.854,31.854,0,0,1,7.319,13.427a1.125,1.125,0,0,1,.223-1.274L10.692,9Z" transform="translate(0 0)"/></g></svg>