<svg xmlns="http://www.w3.org/2000/svg" xmlns:xlink="http://www.w3.org/1999/xlink" width="2008.172" height="417.103" viewBox="0 0 2008.172 417.103"><defs><style>.a{mix-blend-mode:overlay;isolation:isolate;fill:url(#a);}.b{clip-path:url(#b);}.c{fill:none;}.d{fill:#fff;}</style><linearGradient id="a" x1="0.491" y1="0.549" x2="0.491" y2="1.556" gradientUnits="objectBoundingBox"><stop offset="0" stop-color="#45277f"/><stop offset="1" stop-color="#fff" stop-opacity="0"/></linearGradient><clipPath id="b"><path class="a" d="M0,296.906l67.043-47.955,88.888,63.58,98.9-70.744,23.128,16.543,105.544-75.494,48.975,35.031,139.987-100.13,40.416,28.909L691.62,90.328l118.842,85.005L982.172,52.512l62.353,44.6,46.891-33.541,75.727,54.166L1313.277,13.211l117.3,83.9,46.891-33.541,109.908,78.615L1767.688,13.211l111.006,79.4L2008.172,0V417.1H0Z"/></clipPath></defs><g class="b"><g transform="translate(792.534 -4)"><path class="c" d="M0,0H424.1V424.1H0Z"/><path class="d" d="M62.172,103.158l-2.312-2.312-.771.771,3.082,3.082,6.6-6.6-.771-.771Z" transform="translate(118.086 187.536)"/></g></g></svg>