<svg xmlns="http://www.w3.org/2000/svg" width="72.004" height="72" viewBox="0 0 72.004 72"><defs><style>.a{fill:#d69651;}.b{fill:#c78640;}.c{fill:#ffc431;}.d{fill:#d1e4ff;}.e{fill:#fb6a83;}.f{fill:#6173e8;}</style></defs><g transform="translate(-24 -17.232)"><path class="a" d="M74.2,197.882l-2.391,2.391-1.667.571-11.251,3.849-11.309,3.868L36.392,212.39l-10,3.422H24v-2.391l2.045-4.91,2.908-6.979,2.908-6.978,3.121-7.49,2.694-6.465,2.908-6.978,1.346-3.232L44.32,168l11.236,11.236,12.908,12.908Z" transform="translate(0 -126.58)"/><g transform="translate(26.045 47.042)"><path class="b" d="M59.229,399.458l-11.192,3.829L37.69,399.409,40.6,392.43Z" transform="translate(-37.69 -364.52)"/><path class="b" d="M114.894,309.379l-11.251,3.849L76.61,303.09l3.121-7.49Z" transform="translate(-70.795 -282.157)"/><path class="b" d="M146.318,224.151,115.53,212.607l2.908-6.978,14.973,5.613Z" transform="translate(-103.9 -205.63)"/></g><path class="c" d="M165.976,44.32l5-5a3.34,3.34,0,0,0-1.046-5.432l-3.112-1.334a13.148,13.148,0,0,1-5.339-4.2L160,26.391,163.586,24a12.561,12.561,0,0,0,6.479,4.949l1.424.475a7.671,7.671,0,0,1,3.4,12.27l-5.325,6.212Z" transform="translate(-115.05 -5.757)"/><path class="d" d="M305.2,79.172,304,72l7.172,2.391Z" transform="translate(-237.064 -46.585)"/><path class="e" d="M0,0H2.391V4.928H0Z" transform="translate(60.498 20.605) rotate(-75.936)"/><path class="c" d="M0,0H4.31V2.391H0Z" transform="matrix(0.832, -0.555, 0.555, 0.832, 72.345, 19.624)"/><path class="f" d="M0,0H2.391V4.928H0Z" transform="translate(43.64 28.083) rotate(-14.064)"/><path class="f" d="M331.586,250.758l5-5a3.34,3.34,0,0,1,5.432,1.046l1.334,3.112a13.148,13.148,0,0,0,4.2,5.339l1.969,1.477,2.391-3.586a12.561,12.561,0,0,1-4.949-6.479l-.475-1.424a7.671,7.671,0,0,0-12.27-3.4L328,247.172Z" transform="translate(-256.917 -188.452)"/><path class="c" d="M416,173.976l7.172,1.2L420.781,168Z" transform="translate(-331.769 -127.649)"/><path class="e" d="M0,0H2.391V4.928H0Z" transform="translate(91.445 51.611) rotate(-14.064)"/><path class="d" d="M0,0H4.31V2.391H0Z" transform="matrix(0.555, -0.832, 0.832, 0.555, 91.623, 39.57)"/><path class="f" d="M0,0H2.391V4.928H0Z" transform="translate(80.376 68.432) rotate(-75.936)"/><path class="e" d="M256,87.906l4.76-5.557a9.369,9.369,0,0,1,6.081-3.217l.136-.015a9.762,9.762,0,0,0,8.465-7.582h0a6.7,6.7,0,0,1,4.78-5.013L289.468,64l1.2,4.781L284.2,70.218a6.728,6.728,0,0,0-5.142,5.27l-.034.173a10.243,10.243,0,0,1-9.032,8.216l-.141.014a10.486,10.486,0,0,0-7.039,3.726c-1.567,1.884-3.226,3.875-3.226,3.875Z" transform="translate(-195.675 -39.781)"/></g></svg>