<svg xmlns="http://www.w3.org/2000/svg" width="154" height="154" viewBox="0 0 154 154"><defs><style>.a{fill:#00d7df;opacity:0.26;}.b{fill:#00b6bd;opacity:0.47;}.c{fill:#896648;}.d{fill:#73543a;}.e{fill:#10bb66;}.f{fill:#0ca655;}.g{fill:#66bd21;}.h{fill:#6dcd24;}.i{fill:#fedbab;}.j{fill:#fec478;}.k{fill:#3c3a41;}.l{fill:#2b292c;}.m{fill:#fea832;}</style></defs><path class="a" d="M154,77A77,77,0,1,1,77,0,77,77,0,0,1,154,77Zm0,0"/><path class="b" d="M225.951,153.3l-51.3-51.3-26.794,25.275,10.407,10.413v8.556L102,195.223l28.815,28.815A77.538,77.538,0,0,0,225.951,153.3Zm0,0" transform="translate(-72.096 -72.096)"/><path class="c" d="M263.685,281.262h-52.8v-7.283a26.4,26.4,0,0,1,52.8,0Zm0,0" transform="translate(-147.659 -173.241)"/><path class="d" d="M297.27,247.578c-.122,0-.242,0-.364,0v33.679h26.765v-7.283a26.431,26.431,0,0,0-26.4-26.4Zm0,0" transform="translate(-207.719 -173.241)"/><path class="e" d="M287.883,147.117h5.462v33.32h-5.462Zm0,0" transform="translate(-201.313 -102.943)"/><path class="f" d="M296.906,147.117h2.731v33.32h-2.731Zm0,0" transform="translate(-207.612 -102.943)"/><path class="g" d="M296.076,118.387h-8.193v-8.193A8.2,8.2,0,0,1,296.076,102h8.193v8.193A8.2,8.2,0,0,1,296.076,118.387Zm0,0" transform="translate(-201.357 -71.343)"/><path class="h" d="M259.786,152.107h-6.373a13.671,13.671,0,0,1-13.656-13.656v-6.373h6.373a13.671,13.671,0,0,1,13.656,13.656Zm0,0" transform="translate(-167.711 -92.389)"/><path class="g" d="M296.076,192.379h-8.193v-8.193a8.2,8.2,0,0,1,8.193-8.193h8.193v8.193A8.2,8.2,0,0,1,296.076,192.379Zm0,0" transform="translate(-201.357 -123.097)"/><path class="i" d="M202.507,309.323H171.063a20.963,20.963,0,0,1-20.939-20.939v-22.76h17.781a13.586,13.586,0,0,1,9.515,3.861l7.27,7.063h16.6a9.148,9.148,0,0,1,9.1,8.928,8.892,8.892,0,0,1-.08,1.389l8.786-3a7.488,7.488,0,0,1,5.674,13.791Zm0,0" transform="translate(-105.262 -185.927)"/><path class="j" d="M150.125,338.723a20.963,20.963,0,0,0,20.939,20.939h31.444L224.769,348a7.5,7.5,0,0,0,3.124-10.183H150.125Zm0,0" transform="translate(-105.263 -236.309)"/><path class="k" d="M122.029,309.323H102v-43.7h20.028Zm0,0" transform="translate(-71.349 -185.927)"/><path class="l" d="M102,337.813h20.028v21.849H102Zm0,0" transform="translate(-71.349 -236.31)"/><path class="m" d="M231.77,344.152a6.378,6.378,0,0,0,6.279,6.4H258.1a9.339,9.339,0,0,0,6.625-2.789,8.973,8.973,0,0,0,1.836-9.956H231.77Zm0,0" transform="translate(-162.188 -236.262)"/><path class="j" d="M267.136,337.813H231.769v4.649a8.932,8.932,0,0,0,6.351,2.633H258.1a9.339,9.339,0,0,0,6.625-2.789,9.019,9.019,0,0,0,2.415-4.494Zm0,0" transform="translate(-162.187 -236.237)"/></svg>