<svg xmlns="http://www.w3.org/2000/svg" width="154" height="154" viewBox="0 0 154 154"><defs><style>.a{opacity:0.26;}.b{fill:#00d7df;}.c{fill:#00b6bd;opacity:0.47;}.d{fill:#f7a969;}.e{fill:#ea8d4e;}.f{fill:#efebdc;}.g{fill:#d6cfbd;}.h{fill:#bab3a2;}.i{fill:#ffbf85;}.j{fill:#584b66;}.k{fill:#3d3449;}.l{fill:#d36c18;}.m{fill:#af4b00;}</style></defs><g class="a" transform="translate(0)"><path class="b" d="M154,77.155a76.9,76.9,0,0,1-14.832,45.528C125.161,141.857,102.53,134.595,77,134.595s-48.161,7.263-62.168-11.912A77.062,77.062,0,1,1,154,77.155Z" transform="translate(0)"/></g><path class="c" d="M111.577,162.271c25.571,0,48.238,7.274,62.267-11.931a77.539,77.539,0,0,0,12.581-64.282L139.8,39.333,81.631,93.818l12.5,12.659a52.537,52.537,0,0,0,6.5,8.676L97.92,127.769,49.31,150.34c14.03,19.205,36.7,11.931,62.267,11.931Z" transform="translate(-34.7 -27.679)"/><g transform="translate(14.61 10.652)"><path class="d" d="M199.97,260.488h33.2V295.7h-33.2Z" transform="translate(-154.182 -192.514)"/><path class="e" d="M256,260.491h16.6V295.7H256Z" transform="translate(-193.43 -192.516)"/><path class="f" d="M150.8,332.29H128.613L111.7,340.6l-16.913-8.308H72.6A23.108,23.108,0,0,0,49.31,354.444a78.141,78.141,0,0,0,124.78,0A23.1,23.1,0,0,0,150.8,332.29Z" transform="translate(-49.31 -242.188)"/><path class="g" d="M317.241,354.444A75.743,75.743,0,0,1,256,385.537V340.6l16.6-8.309h21.781A22.865,22.865,0,0,1,317.241,354.444Z" transform="translate(-192.461 -242.188)"/><path class="h" d="M272.6,311.667l8.658,6.11-7.778,21.741L256,326.086Z" transform="translate(-193.312 -228.315)"/><path class="i" d="M207.937,93.281c-1.213-17.79-16.107-24.365-28.71-24.365s-27.5,6.575-28.71,24.365c-3.259.609-5.574,4.739-5.21,8.078l.559,7.6a6.449,6.449,0,0,0,7.089,5.686l.606-.063c7.2,18.685,18.5,20.633,25.666,21.727,7.169-1.094,18.464-3.042,25.666-21.727l.606.063a6.449,6.449,0,0,0,7.089-5.686l.559-7.6c.365-3.339-1.95-7.47-5.21-8.078Z" transform="translate(-116.837 -59.148)"/><path class="d" d="M288.773,101.36l-.54,7.6a6.286,6.286,0,0,1-6.849,5.686l-.586-.063c-2.378,6.379-5.215,10.809-8.2,13.917-5.749,6-12.038,7.089-16.6,7.81V68.916c12.177,0,26.567,6.575,27.739,24.365,3.149.609,5.385,4.739,5.033,8.078Z" transform="translate(-193.191 -59.148)"/><path class="f" d="M202.978,199.394a9.069,9.069,0,0,0-11.749,0,22.189,22.189,0,0,1-13.475,5.265l-5.449.22.365,2.2A24.768,24.768,0,0,0,197.1,227.782a26.492,26.492,0,0,0,24.666-22.105l.132-.8-5.449-.22a22.188,22.188,0,0,1-13.474-5.265Z" transform="translate(-134.714 -148.453)"/><path class="g" d="M280.8,204.877l-.13.8c-1.016,6.118-3.7,11.8-8.065,15.715a27.182,27.182,0,0,1-16.6,6.388V197.23a9.047,9.047,0,0,1,5.875,2.16,22.16,22.16,0,0,0,13.472,5.265Z" transform="translate(-193.319 -148.45)"/><path class="g" d="M179.408,311.667l-8.658,6.11,7.778,21.741,17.481-13.432Z" transform="translate(-133.918 -228.315)"/><path class="j" d="M142.306,332.29v48.936a74.978,74.978,0,0,1-11.976-5.446V332.29Z" transform="translate(-105.825 -242.188)"/><path class="k" d="M353.226,332.29v43.49a74.977,74.977,0,0,1-11.976,5.446V332.29Z" transform="translate(-252.951 -242.188)"/><path class="l" d="M217.3,46.73l-9.58-1.58c5.728-1.58,6.716-8.2,6.716-8.2-11.753,4.642-23.8-7.012-44.354,3.654-15.7,8.148-12.269,31.921-12.269,31.921l.031.968,6.716,9.185,3.753-20.1a82.471,82.471,0,0,0,36.74,0l3.753,20.1,6.716-9.185c1.561-13.625-2.69-19.755-5.208-22.126A24.442,24.442,0,0,0,217.3,46.73Z" transform="translate(-124.262 -35.949)"/><path class="m" d="M279.632,51.374c2.516,2.37,6.767,8.5,5.206,22.127l-6.714,9.185-3.754-20.1A82.322,82.322,0,0,1,256,64.66V35.991c11.241-.468,19.57,4.2,27.754.966,0,0-.99,6.619-6.717,8.2l9.579,1.579a24.42,24.42,0,0,1-6.984,4.64Z" transform="translate(-193.227 -35.955)"/></g></svg>