<svg xmlns="http://www.w3.org/2000/svg" width="89.141" height="105" viewBox="0 0 89.141 105">
  <g id="Group_1161" data-name="Group 1161" transform="translate(-13080 -5325.864)">
    <g id="smile_1_" data-name="smile (1)" transform="translate(13080 5326)">
      <ellipse id="Ellipse_130" data-name="Ellipse 130" cx="38.5" cy="39" rx="38.5" ry="39" transform="translate(0 -0.136)" fill="#ffd13a"/>
      <g id="Group_1160" data-name="Group 1160" transform="translate(16.076 25.722)">
        <path id="Path_672" data-name="Path 672" d="M18.665,18.45a2.412,2.412,0,0,1-2.411-2.411,3.215,3.215,0,0,0-6.43,0,2.411,2.411,0,1,1-4.823,0,8.038,8.038,0,0,1,16.076,0A2.412,2.412,0,0,1,18.665,18.45Z" transform="translate(-5 -8)" fill="rgba(0,0,0,0.4)"/>
        <path id="Path_673" data-name="Path 673" d="M27.665,18.45a2.412,2.412,0,0,1-2.411-2.411,3.215,3.215,0,0,0-6.43,0,2.411,2.411,0,1,1-4.823,0,8.038,8.038,0,0,1,16.076,0A2.412,2.412,0,0,1,27.665,18.45Z" transform="translate(14.937 -8)" fill="rgba(0,0,0,0.4)"/>
        <path id="Path_674" data-name="Path 674" d="M25.291,26.143a26.1,26.1,0,0,1-18.584-7.7,2.412,2.412,0,1,1,3.411-3.411A21.3,21.3,0,0,0,25.291,21.32a21.319,21.319,0,0,0,15.176-6.286,2.412,2.412,0,1,1,3.411,3.411A26.118,26.118,0,0,1,25.291,26.143Z" transform="translate(-2.784 6.01)" fill="rgba(0,0,0,0.4)"/>
      </g>
    </g>
    <g id="Group_1151" data-name="Group 1151" transform="translate(13124.078 5368.279)">
      <path id="Path_664" data-name="Path 664" d="M336.476,268.814a35.613,35.613,0,0,0-1.86,35.538,35.638,35.638,0,0,0,33.54-51.748A35.615,35.615,0,0,0,336.476,268.814Zm0,0" transform="translate(-326.967 -252.561)" fill="#a7cc23"/>
      <path id="Path_665" data-name="Path 665" d="M316.944,348.784a1.855,1.855,0,0,1-1.554-2.863l31.23-48.183a1.854,1.854,0,1,1,3.111,2.017L318.5,347.937A1.852,1.852,0,0,1,316.944,348.784Zm0,0" transform="translate(-315.091 -286.198)" fill="#889a3c"/>
      <path id="Path_666" data-name="Path 666" d="M403.845,336.932a1.854,1.854,0,0,1-1.83-1.573l-1.157-7.54a1.854,1.854,0,0,1,3.665-.563l.875,5.708,5.708-.875a1.853,1.853,0,1,1,.563,3.664l-7.54,1.157A1.823,1.823,0,0,1,403.845,336.932Zm0,0" transform="translate(-380.151 -308.045)" fill="#889a3c"/>
      <path id="Path_667" data-name="Path 667" d="M367.73,382.464a1.853,1.853,0,0,1-1.83-1.573l-1.559-10.158a1.854,1.854,0,1,1,3.665-.563l1.277,8.325,8.326-1.278a1.854,1.854,0,1,1,.563,3.665l-10.158,1.56a1.936,1.936,0,0,1-.284.022Zm0,0" transform="translate(-352.444 -340.606)" fill="#889a3c"/>
    </g>
  </g>
</svg>
